<svg xmlns="http://www.w3.org/2000/svg" width="253" height="165" viewBox="0 0 253 165">
  <g fill="#FFF">
    <path d="M236.563437,25.2268699 L238.389487,23.4519388 C237.966086,22.8195405 236.967113,21.424751 236.912867,21.3446472 C236.497919,20.7319235 235.339026,19.7116543 235.339026,19.7116543 C234.464748,18.9401284 233.433368,18.2768129 232.145552,17.8601327 C232.145552,17.8601327 230.032068,17.2164918 228.651259,17.4532898 C227.229589,17.7329504 225.469057,19.0518521 225.469057,19.0518521 C224.60112,19.722897 223.918464,20.5126921 223.423205,21.3312966 C223.1717,21.6587383 222.940626,22.0009361 222.750412,22.3691324 C222.481295,22.8905097 222.383371,23.8805643 222.383371,23.8805643 C222.119185,24.8860775 221.988149,25.9028334 221.900792,26.9069414 C222.880039,27.1760619 223.832516,27.4845318 224.748359,27.7887856 L226.359538,28.3171895 C226.854093,28.4647491 227.288766,28.6291726 227.718508,28.7732189 C228.14825,28.9200759 228.562492,29.0528795 228.968986,29.1624952 C228.968986,29.1624952 230.528032,29.4562091 230.857736,29.4695597 C231.181803,29.3374587 232.373104,28.7212217 232.673218,28.5286916 C234.061073,27.639118 235.520785,26.530313 236.563437,25.2268699 Z M218.993343,31.9492636 C219.139173,30.9268864 219.177216,29.9108331 219.217372,28.8940773 C215.949222,27.6145248 213.063612,27.6939259 212.504948,27.6489553 C211.904014,27.6011741 209.894091,27.662306 209.481257,27.7143031 C209.310065,27.8077576 208.218098,28.5553929 208.218098,28.5553929 C207.617165,29.0184489 207.07259,29.5524741 206.499132,30.1377939 L205.469161,31.2093576 C204.635039,32.0743379 203.714969,32.9927207 202.685703,33.8499717 C203.316225,34.9454261 204.058762,36.0247191 205.035896,36.9634792 C205.216952,37.1897373 206.511108,38.9801271 210.366807,39.4579391 C210.366807,39.4579391 212.120998,39.6265786 213.627208,39.2387077 C214.338043,38.9133739 215.508208,38.0961748 215.501868,38.0891482 C215.904839,37.8270542 217.893627,36.0746083 218.584736,33.7846239 L218.577691,33.7740839 C218.748883,33.3574037 218.87217,32.9238596 218.927825,32.4615062 C218.949664,32.287948 218.965868,32.1101738 218.978548,31.9309943 L218.993343,31.9492636 Z M199.436574,33.0503392 C199.130119,32.3476745 198.225547,29.8672679 197.919092,29.3824293 C197.672519,28.9924503 196.055704,27.0242864 195.391366,26.4740999 C195.391366,26.4740999 194.650238,25.8810508 194.220496,25.6505768 C194.173999,25.6259835 193.017924,25.0434744 192.392332,24.832675 C192.102785,24.8066764 191.816056,24.7919205 191.532849,24.7891098 C191.255983,24.7862991 190.736066,24.8418097 190.741702,24.8544576 C190.28378,24.853755 187.592611,25.6386315 186.758489,26.041961 C185.90112,26.4558306 183.033122,29.2011418 182.406826,29.9663437 C183.159931,30.8264053 183.856676,31.7096549 184.56258,32.5465286 L185.698225,33.8232705 C186.368904,34.5280432 187.077625,35.1681708 187.888499,35.7092226 L189.14109,36.421022 L189.346098,36.5271244 C189.484883,36.5966882 189.627191,36.6627387 189.775135,36.7266812 C190.265463,36.7245732 190.752269,36.6859266 191.242597,36.6177682 C191.244711,36.5924722 195.611873,35.8926181 197.126536,34.4641007 C197.912752,34.0242326 198.685582,33.5450152 199.436574,33.0503392 Z M176.609541,34.2209787 C176.609541,34.2209787 178.483496,31.0442314 179.042865,30.1883857 C176.295336,27.0095304 172.556583,26.5605276 171.194795,26.5457717 C171.194795,26.5457717 169.16726,26.6076062 167.978073,27.0488796 C166.717733,27.6363074 165.412304,29.2664896 165.412304,29.2664896 C164.58875,30.2881641 164.060379,31.3836185 163.705314,32.5022607 C163.705314,32.5022607 163.006455,36.1912507 162.93037,37.1243895 C163.844099,37.3555662 167.403206,38.1952505 167.403206,38.1952505 C168.486718,38.3948073 169.554732,38.5100443 170.612178,38.4854511 C170.612178,38.4854511 171.625946,38.401834 171.806297,38.3948073 C172.239561,38.3378915 172.674234,38.2542744 173.11243,38.13974 C173.432975,37.9219139 173.728158,37.6949532 174.002206,37.4567499 C174.002206,37.4567499 176.061444,35.1021203 176.609541,34.2209787 Z M160.063781,41.677657 C160.134935,40.830946 160.171569,39.9743977 160.215248,39.1178493 C159.371968,38.9288325 158.52587,38.7468424 157.675545,38.6049041 L155.827656,38.3758354 C155.24363,38.3315675 154.659604,38.3196222 154.076282,38.3484314 C153.783917,38.3631874 153.491552,38.3884833 153.199186,38.4257246 C152.907526,38.4629658 152.607411,38.5184763 152.347452,38.5536095 C152.347452,38.5536095 150.817995,38.7503557 149.901447,39.3040555 C149.534406,39.5317189 149.354759,39.7319783 149.150456,39.9807217 C149.20752,40.0306109 148.587565,40.7726248 148.587565,40.7726248 C148.140915,41.5012882 147.855595,42.2700034 147.529414,43.0991478 C147.529414,43.0991478 146.731926,44.6133903 146.435334,45.3294057 C146.116198,45.8219737 145.732248,46.3025964 145.268691,46.7417619 C145.773109,47.6236061 146.496625,48.4569665 147.437125,49.1097421 L149.268811,50.0470968 C150.52422,50.4932889 151.950117,50.6443619 153.399967,50.4490211 C153.399967,50.4490211 154.532794,50.2276817 154.975217,50.1004994 C155.488794,49.9438051 155.998848,49.7421403 156.505379,49.4962077 C157.045022,49.0535289 157.498012,48.5918781 157.880553,48.1217954 C157.867167,48.1063368 158.750603,46.8485669 158.750603,46.8485669 C158.830211,46.7073313 158.907706,46.5625823 158.973928,46.4234547 C159.035219,46.2885431 159.093692,46.1522261 159.147938,46.0152065 C159.25784,45.7425726 159.354355,45.4664253 159.440304,45.1895754 C159.6122,44.6344703 159.740418,44.0709332 159.838343,43.5017747 L160.063781,41.677657 Z M142.283747,41.2068716 C142.02872,40.470479 141.684223,39.7600849 141.365791,39.0461775 C141.265753,38.8220275 140.331593,36.2460585 138.189225,35.94321 C138.051849,35.9235354 137.910245,35.9242381 137.750325,35.951642 L137.177571,36.054231 C136.792917,36.1223895 136.417421,36.190548 136.053198,36.2783811 C135.871438,36.322649 135.692496,36.3718355 135.517782,36.4280487 C135.429015,36.4561553 135.345885,36.4863699 135.264164,36.5158818 L134.998569,36.6233895 L133.904489,37.0653656 L131.729714,37.9479125 C130.995631,38.2353024 130.242526,38.498099 129.480968,38.7018718 C129.204101,38.7805703 128.922304,38.8262435 128.640506,38.860674 C128.965982,38.9007259 129.290754,38.9583444 129.60989,39.0714735 C130.144602,39.2696249 130.68354,39.4944776 131.142166,39.9020232 C131.57543,40.2898941 131.934018,40.7733275 132.220043,41.2834621 C132.507476,41.7964074 132.727983,42.3458912 132.875927,42.9220763 L133.066845,43.7512207 C133.134477,44.016828 133.210562,44.2775166 133.301442,44.5297732 C133.481792,45.0328812 133.719207,45.5071799 134.035525,45.8817002 C134.72593,46.7087366 136.22439,47.1106609 137.270564,47.1703874 C138.05044,47.2153579 141.515848,46.5913916 142.152007,46.0004505 C142.805778,45.3933482 142.683196,44.3147578 142.645153,43.522152 C142.60711,42.7443021 142.538775,41.9404536 142.283747,41.2068716 Z M245.220971,20.814838 C245.220971,20.814838 243.895112,21.8800777 243.826072,21.9622895 L243.828185,21.9468309 C243.11735,22.5602572 242.418492,23.2095194 241.71752,23.858079 C242.241663,24.6591168 242.771443,25.459452 243.358992,26.2211406 L244.585517,27.630686 C245.485861,28.5343129 246.552466,29.3255134 247.91989,29.8679706 C249.282382,30.4069145 250.962602,30.701331 253,30.4926396 C251.586784,30.6423072 250.19893,30.6921963 248.856867,30.680251 C246.36507,30.6479285 244.56086,29.9607223 243.160324,29.0268809 C241.759085,28.0839048 240.744613,26.8654841 239.82102,25.568365 C238.619857,26.6033902 237.373606,27.534421 236.066064,28.2103845 C234.757113,28.8919693 233.409415,29.3128654 231.991268,29.4393451 C231.22055,29.5082062 230.512533,29.6318752 229.846786,29.8110548 C229.231762,29.9768836 228.671689,30.0619061 228.087663,30.0864993 L227.142936,30.1153086 C226.808301,30.1174166 226.470144,30.1075793 226.125646,30.0857967 C224.750472,29.9965582 223.264693,29.7358696 221.716919,29.4224811 C221.587996,30.9838022 221.392851,32.5128007 220.626361,34.0628791 C220.241003,34.8358104 219.703473,35.6178762 218.928529,36.3802675 C218.156403,37.1384427 217.135591,37.8811594 215.833685,38.4812351 C214.430331,39.1276866 212.924122,39.6441452 211.422844,39.9919643 C208.580913,40.6517665 206.096865,40.1725491 204.338447,39.2162224 C202.55678,38.2535717 201.425362,36.8545662 200.582786,35.3916182 C199.182251,36.2783811 197.619682,36.9578579 195.990891,37.2796784 C194.358577,37.6057148 192.689629,37.5740949 191.050975,37.177792 L191.22428,37.2283838 L190.880487,37.1370374 L190.86217,37.1335241 C190.420452,37.0196924 189.992824,36.9227247 189.572945,36.8391076 L189.260854,36.7807864 L188.925515,36.7238705 L188.193545,36.6086335 L188.42321,36.6381454 C186.67395,36.3402156 185.350205,35.7345186 184.165949,34.9102928 C182.984512,34.0881751 181.943974,33.0510419 180.859756,31.9612089 C179.923483,33.2014122 179.035116,34.3804836 178.037551,35.3621063 C177.033646,36.3507556 175.939566,37.1279028 174.406586,37.7202492 C173.575987,38.0441776 172.748206,38.4208059 171.916902,38.8480261 C170.386036,39.6420372 168.891803,40.0158549 167.360936,40.0980667 C165.833592,40.1823864 164.285113,39.973695 162.723248,39.6624145 C162.566146,41.2363836 162.312528,42.773814 161.685528,44.23887 C161.370619,44.9710467 160.962716,45.6863594 160.424483,46.3791868 C160.14973,46.7305192 159.867227,47.0565557 159.501595,47.4106987 C159.120463,47.776787 158.691426,48.1351461 158.205325,48.4836678 C157.154219,49.2341137 156.036186,49.969101 154.783595,50.6563072 C153.623997,51.2915161 152.394653,51.713115 151.158266,51.8958078 C149.926105,52.0806086 148.689717,52.0166661 147.590001,51.7271682 C146.486058,51.4397784 145.530763,50.9296438 144.788226,50.3042721 C144.040052,49.6789005 143.50041,48.9446158 143.112233,48.1892512 C141.662383,48.8539721 139.932849,49.118174 138.2167,48.9010506 C138.130752,48.8947266 134.830899,48.7274924 133.279602,46.4487507 C132.916083,45.9140228 132.696985,45.3336217 132.547633,44.7574366 C132.473661,44.4686414 132.417301,44.1791435 132.372918,43.8903483 C132.325717,43.6015531 132.300355,43.3057312 132.260199,43.0506639 C132.175659,42.5187467 132.020671,41.9917482 131.798755,41.4942615 C131.57543,40.9953695 131.294337,40.5259895 130.918137,40.1198493 C130.559549,39.7333837 130.055835,39.4530204 129.550713,39.2155197 C129.125198,39.0405562 128.720114,38.9281299 128.250216,38.8641874 C127.885288,38.8831593 126.889132,38.4945857 126.530544,38.4721004 C125.743624,38.4109686 125.532276,38.4896671 124.750287,38.3702141 C123.974638,38.2465451 124.607274,38.8346754 124,38.3329728 C124.636863,38.7974342 124.011272,38.3161089 124.769308,38.1636306 C125.259636,38.0652575 126.104325,37.9022393 127.103299,38.1263894 C127.859221,38.2964343 128.647551,38.5564202 129.359795,38.3069742 C130.0974,38.0624469 130.806826,37.766625 131.512026,37.4412913 L133.630441,36.4343727 L134.685069,35.9340754 L134.955595,35.8061904 C135.055633,35.7626252 135.154262,35.7204653 135.249369,35.6839267 C135.443105,35.6087416 135.63825,35.5419884 135.833395,35.4829646 C136.223685,35.3635116 136.613271,35.2700572 136.995107,35.1794134 L137.569974,35.0402858 C137.792595,34.9882886 138.046213,34.9636954 138.297717,34.9861806 C138.397755,34.9939099 139.348119,35.341729 139.614418,35.5447991 C139.789132,35.6754947 139.94553,35.809001 140.094883,35.934778 C140.16815,35.9966125 142.422533,38.1769812 143.406007,40.6124173 C143.900563,41.8357566 143.990033,43.1483343 144.371165,44.5325839 C144.94251,44.110985 145.418044,43.6472263 145.780154,43.1841702 C146.145787,42.7204115 146.393769,42.2629768 146.611458,41.8561339 C146.83126,41.447183 147.034154,41.088824 147.35329,40.7564635 C147.671017,40.4219951 148.1071,40.1086066 148.729873,39.7699222 C149.401961,39.4059419 150.138862,38.9309405 150.889853,38.3962126 C151.237169,38.148172 151.590825,37.9226166 151.948004,37.7223572 C152.338294,37.4939911 152.752537,37.2810837 153.154099,37.1096335 C153.963563,36.7604091 154.774436,36.5341511 155.5839,36.4041581 C157.202829,36.1441721 158.816826,36.2706518 160.408279,36.5601497 C160.594266,34.9651007 160.948627,33.3834023 161.785566,31.8832131 C162.62321,30.3900505 163.953296,28.9516958 166.128775,27.8190002 C167.303167,27.2118979 168.528988,26.6469554 169.800601,26.1494688 C172.162067,25.2261673 174.329092,25.1797914 176.114986,25.6287942 C177.912151,26.0784996 179.358479,27.0102331 180.587822,28.1035794 C181.651608,26.8626735 182.940129,25.7608951 184.563284,25.0462851 C186.182917,24.3323777 188.141412,24.0091519 190.417634,24.354863 L190.391568,24.3499443 L190.444405,24.3583763 L190.472585,24.3625923 L191.444787,24.5235025 C191.787876,24.585337 192.127443,24.6513875 192.462782,24.7230593 C193.132052,24.8642949 193.785118,25.0230972 194.416345,25.193142 L194.370553,25.1818994 C196.635503,25.8023524 198.057878,26.8043523 199.099825,27.9152653 C200.13825,29.0346102 200.81527,30.3064334 201.506379,31.6386858 C202.735722,30.7835428 203.882639,29.9670463 204.948539,29.3156761 C206.030643,28.6593872 206.988755,28.1963312 208.293479,27.9328319 L208.546393,27.878024 L208.537234,27.880132 C209.056447,27.7613817 209.54748,27.6103088 210.034285,27.4198866 L210.336514,27.2962176 L210.335809,27.2969203 L210.565474,27.1950339 C211.17768,26.9167787 211.801862,26.6996553 212.479586,26.5239891 C213.155901,26.3504309 213.88153,26.2197352 214.638157,26.1424421 C216.153525,25.9829372 217.783726,26.0595277 219.380815,26.3363776 C219.559052,24.7399233 219.955682,23.1216864 220.978608,21.5976065 C221.235045,21.2174649 221.528819,20.8457552 221.866976,20.4866935 C222.036055,20.307514 222.215701,20.1318479 222.406619,19.959695 C222.61374,19.7840288 222.830725,19.6041466 223.064617,19.4383177 C223.991027,18.7665702 225.137944,18.1938985 226.470144,17.8271075 C227.909426,17.4293992 229.360685,17.1813586 230.768969,17.0492576 C233.388985,16.8173782 235.323527,17.4315072 236.800147,18.3175675 C238.280291,19.217681 239.33985,20.4297777 240.28176,21.7283022 C241.502649,20.695385 242.80385,19.7868395 244.232565,19.1649812 C245.66128,18.5382042 247.200601,18.2079518 248.933657,18.230437 C249.872749,18.2416797 250.778729,18.2065464 251.655824,18.1180107 C250.396893,18.2437877 249.288018,18.5445282 248.228458,19.0061789 C247.173125,19.4685323 246.179788,20.0903906 245.220971,20.814838 Z"/>
    <path d="M218.266765,30.2728261 L218.03316,30 C217.923984,30.1330531 217.785908,30.2546825 217.61813,30.3554803 C217.425466,30.4710618 217.215141,30.5469962 217,30.5886593 L217.252069,30.881645 C217.292207,30.928684 217.269729,30.9992425 217.2031,31.0388896 C217.193467,31.0442655 217.184636,31.0469534 217.175806,31.0503134 L219.643509,33.8726525 C219.804062,34.0601365 220.223106,34.037961 220.580337,33.8235976 C220.938371,33.6092342 221.098122,33.2839932 220.937568,33.0965093 L218.47147,30.2755141 C218.467457,30.278202 218.465048,30.2815619 218.461035,30.2842499 C218.393602,30.324569 218.306903,30.3198651 218.266765,30.2728261"/>
    <path d="M215,28.000975 L215.896361,28.9803891 L217.324367,30.5601096 L217.356013,30.5945739 L217.72231,31 C217.731804,30.9968669 217.740506,30.9943604 217.75,30.9893474 C217.815665,30.9523765 217.837025,30.886581 217.798259,30.8427172 L217.549842,30.5695089 C217.761867,30.5312848 217.968354,30.4598496 218.159019,30.3520702 C218.324367,30.2587032 218.460443,30.1452841 218.568038,30.0212125 L218.798259,30.2749954 C218.837816,30.3188591 218.923259,30.3238721 218.989715,30.285648 C218.99288,30.2837682 218.996044,30.2800084 219,30.2781285 L218.65981,29.9021538 L218.598892,29.8344784 L217.142405,28.2246799 C217.142405,28.2246799 215.269778,27.9828029 215,28.000975"/>
    <path d="M215.561975 28.058321L220 33.9295392C219.810174 34.0582721 219.540066 34.005641 219.393007 33.8121859L215 28 215.561975 28.058321zM245.832955 25.4712246L245.889242 25.1499351C245.675897 25.1843358 245.449841 25.1947209 245.217431 25.1739507 244.95143 25.1499351 244.708125 25.0889225 244.491148 25L244.43123 25.3459541C244.421244 25.4011251 244.338629 25.4387711 244.246028 25.4309823 244.233318 25.4296841 244.22424 25.4264388 244.213345 25.4238425L244 26.6927737 245.576941 28 246 25.5861099C245.994553 25.5854608 245.989106 25.586759 245.982751 25.5861099 245.89015 25.577672 245.822061 25.5263955 245.832955 25.4712246M244.633381 20.288758L244.341638 22.2647822 244.074149 24.2761042 244.068605 24.3198996 244 24.8362937C244.008316 24.8389083 244.015246 24.8421766 244.024947 24.843484 244.096324 24.8513279 244.158692 24.8134154 244.166315 24.7578541L244.212744 24.4094515C244.377673 24.4990034 244.563391 24.5611014 244.766433 24.5846333 244.943835 24.6055505 245.116387 24.5950919 245.279237 24.5604477L245.236272 24.8840111C245.227956 24.9402261 245.280623 24.9912119 245.350613 24.9997095 245.355464 25.0003631 245.359622 24.9997095 245.36378 24.9997095L245.427534 24.5212279 245.438621 24.4349444 245.710962 22.3857099 245.997854 20.4502128C246.027652 20.2273136 245.743532 20.0554002 245.367245 20.0102974 244.990958 19.9658483 244.66318 20.0665125 244.633381 20.288758"/>
    <path d="M245 20.0030417L244.284447 27 244 26.5197243 244.626257 20.3876969C244.651094 20.1464725 244.817859 19.9747902 245 20.0030417M165.992704 36.2651514L165.825055 36C165.734638 36.1272727 165.622245 36.2419507 165.487247 36.3367423 165.333413 36.4454544 165.167648 36.5163824 165 36.5535036L165.180834 36.8378786C165.209717 36.8836172 165.188997 36.9512308 165.135626 36.9890149 165.129347 36.9936551 165.121184 36.9963066 165.114277 36.999621L166.923874 39.8738627C167.038779 40.0554914 167.364029 40.0389194 167.650349 39.8374043 167.936042 39.6352264 168.074807 39.3243363 167.959274 39.1427075L166.150306 36.2704545C166.148422 36.2724431 166.145282 36.2764204 166.142771 36.278409 166.088772 36.316856 166.020959 36.3108901 165.992704 36.2651514"/>
    <path d="M164,34.9513037 L165.268033,36.5220169 L165.297541,36.5600069 L165.647541,37 C165.656557,36.9965464 165.666393,36.9944742 165.67459,36.9889484 C165.745082,36.9495769 165.772131,36.8798135 165.734426,36.8321533 L165.498361,36.5351407 C165.716393,36.49646 165.933607,36.4225522 166.134426,36.309273 C166.309836,36.2111898 166.457377,36.0910033 166.57541,35.9583837 L166.794262,36.2346745 C166.831148,36.2823347 166.919672,36.2885512 166.989344,36.248489 C166.993443,36.2464169 166.996721,36.2422725 167,36.2402003 L166.677049,35.8326714 L166.618852,35.7587636 L165.232787,34.0112243 L164.429508,33 L164,34.9513037 Z"/>
    <path d="M164.100338 34L168 39.9335285C167.816403 40.0583917 167.565914 40.002095 167.437822 39.8086653L164 34.5752369 164.100338 34zM186.844817 30.5057576L186.882388 30.1411239C186.692085 30.1838425 186.48953 30.2006248 186.280442 30.181554 186.040317 30.1601947 185.818161 30.095354 185.620507 30L185.580486 30.3928584C185.574769 30.4554106 185.501261 30.4996549 185.417136 30.4920266 185.407335 30.4912637 185.397534 30.4882124 185.387733 30.4851611L185.001409 34.4686693C184.975273 34.719641 185.315858 34.9545932 185.761805 34.9942605 186.206934 35.0339277 186.589174 34.8638162 186.614493 34.6128445L187 30.6316248C186.995916 30.6316248 186.990199 30.6331505 186.985298 30.6323876 186.90199 30.6247593 186.8391 30.5683098 186.844817 30.5057576M185.318744 27.1362524L185.282895 27.4434747 185.061567 29.3463332 185.056111 29.3879363 185 29.8762918C185.009352 29.878852 185.018704 29.8820522 185.028056 29.8826923 185.108326 29.8884527 185.178465 29.85133 185.18392 29.7988462L185.222107 29.4692222C185.410704 29.549868 185.62268 29.603632 185.851801 29.6215533 186.051308 29.6375544 186.244581 29.6234734 186.426163 29.5876308L186.390314 29.8935731C186.384859 29.9460569 186.444867 29.9934203 186.524358 29.9998208 186.529034 30.0004608 186.534489 29.9991807 186.538386 29.9991807L186.592159 29.5466678 186.601511 29.4653819 186.827515 27.5260407 186.999746 26.0225713C187.023905 25.812636 185.318744 27.1362524 185.318744 27.1362524"/>
    <path d="M186 27L185.351649 34C185.136695 33.9783773 184.980365 33.7744028 185.002 33.5430395L185.567999 27.4202018 186 27zM159.047749 41.2470898L158.842428 41C158.755798 41.1350758 158.644611 41.2589501 158.507503 41.3656929 158.351296 41.4875906 158.178035 41.5732484 158 41.625302L158.221692 41.8901823C158.25648 41.9323523 158.240791 42.0015374 158.186903 42.0437074 158.180082 42.0489787 158.171896 42.0522732 158.164393 42.0562267L159.786494 44 160 42.2328135 159.218963 41.2372062C159.216917 41.2398419 159.214188 41.2444542 159.210778 41.2464309 159.156207 41.2886009 159.08322 41.2892598 159.047749 41.2470898"/>
    <path d="M156.055249,38.0689778 L157.236992,39.7043942 L158.550507,41.499646 L158.579245,41.5397978 L158.916385,42 C158.924095,41.9953671 158.931805,41.9922785 158.939515,41.9853291 C158.994888,41.9359114 159.011009,41.8548356 158.975262,41.8054179 L158.747464,41.4950131 C158.930403,41.4340131 159.107735,41.3336334 159.268945,41.1907854 C159.409829,41.0656969 159.524079,40.9205325 159.613095,40.7630136 L159.82407,41.0517982 C159.860518,41.101988 159.935516,41.1012159 159.991589,41.0510261 C159.995094,41.0487096 159.997897,41.0440767 160,41.0402159 L159.688093,40.6132163 L159.63202,40.5367733 L158.293271,38.7067747 L157.138163,37.1068773 C156.992373,36.9092065 156.664344,36.9995482 156.365054,37.2643961 C156.065763,37.5300162 155.909459,37.8705349 156.055249,38.0689778"/>
    <path d="M156.12862 38L160 43.4713498 159.920438 44 156.084419 38.5789978C155.956236 38.3984656 155.976442 38.1395349 156.12862 38M177.391803 31.3623666L177.302459 31C177.136066 31.100097 176.948361 31.1769156 176.742623 31.2226964 176.507377 31.2754607 176.27377 31.2816683 176.054098 31.2498545L176.15082 31.6401552C176.166393 31.7022308 176.113115 31.7674103 176.030328 31.786033 176.020492 31.7883608 176.010656 31.7875849 176 31.7883608L176.8 35C177.097541 34.5522793 178 33.1051406 178 33.1051406L177.582787 31.4368574C177.578689 31.4376334 177.57377 31.4407371 177.569672 31.442289 177.486885 31.4601358 177.407377 31.4252182 177.391803 31.3623666"/>
    <path d="M175.00573,27.6117159 L175.297722,29.1669799 L175.713902,31.3824687 L175.722989,31.4312613 L175.829608,32 C175.837484,31.9992376 175.844753,32.0007624 175.852023,31.9977128 C175.913208,31.980178 175.952584,31.9161377 175.941074,31.855147 L175.869591,31.4716677 C176.031943,31.502163 176.204594,31.496064 176.378457,31.4449842 C176.531116,31.4000035 176.669237,31.3237651 176.792213,31.2254175 L176.858244,31.5822134 C176.869755,31.6439665 176.928516,31.6782738 176.989702,31.660739 C176.99273,31.6592142 176.996365,31.6561647 177,31.6546399 L176.90065,31.1278323 L176.883082,31.0332967 L176.459027,28.7751144 L176.176122,27.2633063 C176.129476,27.0185809 175.842936,26.9446296 175.520048,27.04069 C175.196555,27.1367505 174.95969,27.3669905 175.00573,27.6117159"/>
    <path d="M175.319986 27L177 33.5768471 176.677754 34 175.011946 27.4812327C174.957366 27.2641249 175.094938 27.0490913 175.319986 27M211.033626 34.5326367L210.951833 34C210.831263 34.1204683 210.692517 34.2045689 210.539231 34.2416943 210.363526 34.2841234 210.187822 34.2606359 210.019994 34.184112L210.109058 34.7561471C210.122993 34.8478243 210.084217 34.9334401 210.023629 34.9485934 210.015147 34.9501087 210.007876 34.9478357 210 34.947078L210.792487 39.9400735C211.423811 40.0256894 211.798243 40.0234164 212 39.9082517L211.180854 34.6652276C211.177219 34.6667429 211.17419 34.6697736 211.170554 34.6712889 211.109361 34.6856845 211.048167 34.6235562 211.033626 34.5326367"/>
    <path d="M209.011531,28.6931653 L209.534309,31.1097926 L210.221576,34.1507849 L210.236233,34.2176812 L210.412936,34.9981375 C210.423522,34.9988344 210.434107,35.0009249 210.444693,34.9995312 C210.526123,34.9855945 210.578238,34.906852 210.559509,34.8225348 L210.439807,34.2964237 C210.665368,34.3668041 210.901514,34.388406 211.13766,34.3493832 C211.343677,34.3152382 211.530151,34.2378894 211.692196,34.1270925 L211.802126,34.6169682 C211.821669,34.7005885 211.903913,34.7577291 211.986157,34.7444892 C211.991857,34.7430955 211.995114,34.7403082 212,34.7389145 L211.837141,34.0155988 L211.807826,33.8852904 L211.106716,30.7864607 L210.597781,28.4304582 C210.521237,28.0945832 210.12386,27.9454603 209.685769,28.0179313 C209.248491,28.0904022 208.934987,28.3572904 209.011531,28.6931653"/>
    <path d="M209.237056 29L211 39.9248695C211 39.9248695 210.705887 40.1493105 210.653883 39.8223472L209.014015 29.6636247C208.961433 29.3366614 209.061397 29.0408704 209.237056 29M172.830067 31.088876L173 31.5716939C172.833988 31.5490397 172.667976 31.5660303 172.511115 31.6311612 172.330724 31.7054953 172.181052 31.8343411 172.062752 32L171.879746 31.481077C171.850988 31.3982476 171.776479 31.3522312 171.713735 31.3784251 171.705238 31.3812569 171.700009 31.3883364 171.69282 31.393292L170.007864 26.6090062C169.891525 26.2776884 171.102628 25.7778799 171.21962 26.1084898L172.903922 30.8899438C172.900001 30.8913597 172.895426 30.8906517 172.891504 30.8920676 172.828759 30.9175536 172.801309 31.0060466 172.830067 31.088876"/>
    <path d="M174.107556,38 L173.277663,35.5231565 L172.278076,32.3964553 L172.2564,32.3270387 L172,31.5243169 C172.006193,31.5191476 172.011767,31.5117628 172.019818,31.5088089 C172.079273,31.4814854 172.149876,31.5294862 172.177126,31.6158878 L172.350537,32.1571896 C172.462634,31.9843865 172.604459,31.8499842 172.775392,31.7724444 C172.92403,31.7052432 173.081338,31.6875198 173.238646,31.7104125 L173.077622,31.2067729 C173.049752,31.1203713 173.076383,31.0288005 173.135838,31.0014769 C173.139554,31 173.143889,31.0007385 173.147605,31 L173.384806,31.7429054 L173.427539,31.8773077 L174.446325,35.0638253 L175,36.798502 C175,36.798502 174.60673,37.5458382 174.107556,38"/>
    <path d="M174 37.630241L170.284694 27C170.284694 27 169.907675 27.0399231 170.021369 27.3664371L173.702697 37.9025736C173.817044 38.2290876 174 37.630241 174 37.630241M194.39108 31.4956755L194.236062 32C194.083492 31.8735534 193.904814 31.7785358 193.702475 31.7288342 193.469948 31.6718236 193.231711 31.6784018 193 31.7361433L193.167256 31.1938117C193.193364 31.1075649 193.150122 31.0213181 193.067718 31.0015836 193.057928 30.99866 193.048137 31.0001218 193.037531 31.0001218L194.570574 26C194.889584 26.1396029 195.692412 26.6110367 196 26.8917042L194.59913 31.3823852C194.594234 31.3809234 194.590971 31.3765379 194.58526 31.375807 194.504487 31.3553417 194.417188 31.4094287 194.39108 31.4956755"/>
    <path d="M192.018966,37.2102289 L192.599605,35.0096008 L193.427787,31.8739984 L193.446019,31.8052287 L193.657798,31.0004778 C193.666915,31.0004778 193.67533,30.9990146 193.684446,31.0012094 C193.754572,31.0216939 193.791738,31.1080218 193.769298,31.193618 L193.626242,31.7371907 C193.824697,31.6786634 194.029463,31.672079 194.229321,31.7291432 C194.403232,31.779623 194.556807,31.8739984 194.687942,32.0012953 L194.82118,31.4957654 C194.84362,31.4094376 194.918654,31.3560314 194.988079,31.3757844 C194.992987,31.3772475 194.995792,31.3809055 195,31.3823687 L194.803649,32.1278607 L194.767885,32.2624736 L193.924976,35.4573349 L193.360466,37.5950461 C193.269303,37.9418207 192.915871,38.0698492 192.545608,37.9637684 C192.175346,37.856956 191.927803,37.5570034 192.018966,37.2102289"/>
    <path d="M192.230486 37L195 26.2331034 194.693495 26 192.030451 36.3213793C191.948501 36.6406897 192.037549 36.9434483 192.230486 37M190.107326 30.4765594L190.034704 31C189.902314 30.887464 189.753856 30.8097253 189.590617 30.7793702 189.402956 30.7453132 189.217224 30.7756683 189.041774 30.8571089L189.119537 30.2936884C189.132391 30.2041038 189.089974 30.1219229 189.024422 30.110077 189.016067 30.1078559 189.008355 30.1108174 189 30.1122981L189.663882 25.3480266C190.071979 25.15405 190.584833 24.9778423 191 25.0022744L190.25964 30.3418124C190.255141 30.3403316 190.252571 30.3373702 190.248072 30.3366298 190.182519 30.3240435 190.119537 30.3869748 190.107326 30.4765594"/>
    <path d="M188.009367,36.2469211 L188.303067,34.0336518 L188.720774,30.8807668 L188.730267,30.8118041 L188.83766,30.00293 C188.84478,30.0014933 188.8519,29.9986198 188.860207,30.0007749 C188.920134,30.0122687 188.959887,30.0920067 188.94802,30.1789284 L188.875634,30.7248825 C189.037614,30.6465812 189.20968,30.6171284 189.38234,30.650173 C189.533047,30.6796258 189.6707,30.7543353 189.792333,30.8635261 L189.859973,30.3563635 C189.871247,30.2694418 189.9288,30.2083812 189.98932,30.2198749 C189.993473,30.2205933 189.99644,30.2241851 190,30.2256218 L189.900913,30.974872 L189.883113,31.1106422 L189.4571,34.3231512 L189.134327,36.8927273 C189.099914,37.0392729 188.72908,37.0119752 188.408087,36.9501962 C188.087094,36.8876988 187.963087,36.595326 188.009367,36.2469211"/>
    <path d="M188.28944 36L190 25 189.584244 25.234322 188.0116 35.3468016C187.960049 35.6744376 188.085244 35.9661305 188.28944 36M168.203274 33.2805783L168.311104 33.4756689C168.150816 33.6235715 168.045172 33.8172535 168 34.0306559L168.765011 35.4167148 170.708867 38.9205984C170.877898 39.2269682 172.153644 38.5691536 171.984613 38.2634882L170.126001 34.9131415 169.191231 33.2186C168.995971 33.1876109 168.79634 33.2073312 168.610551 33.2848041L168.51875 33.1185897C168.463378 33.0171707 168.347533 32.9727999 168.260104 33.0171707 168.173402 33.0622458 168.148631 33.1798636 168.203274 33.2805783"/>
    <path d="M166,30.041856 L168.766327,35 C168.812382,34.7825879 168.922612,34.5852667 169.087958,34.434585 L168.976217,34.2358287 C168.919592,34.1332217 168.945262,34.0133939 169.035863,33.9674719 C169.126463,33.9215499 169.246508,33.9674719 169.303133,34.0700789 L169.398263,34.2401339 C169.590789,34.1612055 169.798414,34.140397 170,34.172686 L167.226878,29.2288926 C167.171763,29.1313083 167.091733,29.0545324 166.995847,29 C166.687807,29.2439608 166,30.041856 166,30.041856"/>
    <path d="M166.318807 29L172 38.9681196C171.791284 39.0724754 171.48318 38.9123679 171.309633 38.6085926L166 29.2973424 166.318807 29zM214.240444 32.2686329L214.344687 32.4592309C214.172724 32.599417 214.054785 32.7844904 214 32.9888998L214.741116 34.3458744 216.590101 37.722773C216.753694 38.0224814 217.15621 38.0728931 217.529051 37.9043935 217.902652 37.7358939 218.106573 37.4133966 217.94298 37.1143788L216.176172 33.8873344 215.270702 32.2292703C215.068302 32.1954322 214.859816 32.2106248 214.663504 32.2810632L214.574479 32.1180881C214.521216 32.0200269 214.402516 31.9737585 214.309686 32.0151929 214.217617 32.0566272 214.18642 32.1705716 214.240444 32.2686329"/>
    <path d="M211,28.0978463 L213.787659,34 C213.839927,33.7724046 213.95245,33.5670324 214.116515,33.4122368 L214.01706,33.1999677 C213.965517,33.0911511 213.995281,32.9654755 214.083848,32.9194967 C214.171688,32.8727515 214.284936,32.9240946 214.336479,33.0329112 L214.42069,33.2137614 C214.607985,33.1355973 214.807623,33.1187384 215,33.1562878 L212.623956,28.072558 C212.098367,27.9185288 211.421053,28.0503348 211,28.0978463"/>
    <path d="M211.43163 28.118462L216 37.9712707C215.814261 38.0702795 215.55007 37.9052649 215.409257 37.601064L211.023273 28.1414205C210.881789 27.8372196 211.43163 28.118462 211.43163 28.118462M227.441555 24.2451311L227.497855 24.4613337C227.282306 24.5647662 227.111796 24.7263795 227 24.921752L227.396515 26.4560006 228.196783 29.5510743C228.196783 29.5510743 229.210188 29.9396644 230 30L228.996247 26.3065981 228.51126 24.4304476C228.312601 24.3514367 228.093834 24.3212689 227.873458 24.3500001L227.826005 24.1661201C227.796247 24.0547866 227.687668 23.9822402 227.581501 24.0037886 227.475335 24.0260553 227.412601 24.1337975 227.441555 24.2451311M226.013793 18.6184406L227.496892 24C227.608144 23.8155281 227.777824 23.6629319 227.992325 23.5652704L227.936299 23.3611306C227.907485 23.2560087 227.969114 23.1542779 228.075564 23.1332536 228.181214 23.1129074 228.289265 23.1820844 228.318079 23.286528L228.365301 23.4608268C228.585405 23.4336985 228.803107 23.4621832 229 23.5361075L227.561722 18.3159611C227.474481 17.9958481 227.113511 17.9537994 226.686109 18.0372187 226.258708 18.1213161 225.927352 18.2983277 226.013793 18.6184406"/>
    <path d="M226.299018 19L229 30 228.509335 29.8107589 226.025824 19.6980083C225.943015 19.3617415 226.066068 19.0509495 226.299018 19M231.569212 23.2233116L231.585569 23.45003C231.350033 23.5221676 231.148028 23.659818 231 23.8408982L231.111225 25.4514817 231.394196 29.6980336C231.418731 30.0543053 231.778577 30.0079311 232.225932 29.9836398 232.673287 29.9578764 233.02332 29.7179083 232.998785 29.3623727L232.743621 25.5405496 232.60786 23.5714862C232.423848 23.4618075 232.209576 23.3985031 231.983036 23.3940865L231.96995 23.2012287C231.960954 23.084189 231.865268 22.994385 231.75486 23.0002738 231.644453 23.0068987 231.561034 23.106272 231.569212 23.2233116"/>
    <path d="M231,18 L231.4166,24 C231.56245,23.8262712 231.761483,23.694209 231.992748,23.625 L231.977438,23.4074859 C231.96938,23.295904 232.051571,23.1998588 232.159549,23.1935028 C232.269138,23.1878531 232.363417,23.2740113 232.37228,23.3862994 L232.385173,23.5720339 C232.60838,23.575565 232.8195,23.6362994 233,23.7415254 L232.618856,18.3072034 C232.157937,18.1581921 231.425463,18.0324859 231,18"/>
    <path d="M231.359327 18.1612569L232 29.9982323C231.803459 30.0112982 231.617128 29.9822629 231.582669 28.8121394L231.000704 18.1496428C230.98156 17.8063001 231.359327 18.1612569 231.359327 18.1612569M148.23813 47.8837955L148.211561 47.7315315C148.013621 47.7267519 147.830294 47.6728109 147.682171 47.581316L147.49353 46.4977154 147.004658 43.6477163C146.963476 43.4080542 147.199277 43.0864563 147.557296 43.0202249 147.915315 42.9546762 148.23348 43.0495852 148.275327 43.2885645L148.770177 46.1385636 149 47.4638747C148.873797 47.5697084 148.715046 47.6509614 148.536369 47.6953432L148.558952 47.8250749C148.572237 47.9035966 148.512456 47.9807528 148.42345 47.99714 148.335107 48.0128443 148.252079 47.9623173 148.23813 47.8837955"/>
    <path d="M147.397711,49.2294498 L147,47.1149476 C147.159514,47.2051682 147.356938,47.2572956 147.570815,47.262642 L147.598712,47.4110047 C147.613734,47.4885275 147.703147,47.5379817 147.798283,47.5219425 C147.894134,47.5059033 147.959227,47.4303854 147.944206,47.3535309 L147.919886,47.2265538 C148.112303,47.1831143 148.283262,47.1035865 148.419886,47 L149,50 C148.693848,49.893072 147.511445,49.4326131 147.397711,49.2294498"/>
    <path d="M149 50L147.425641 43C147.139394 43.0410886 146.952957 43.2794023 147.010394 43.5356457L148.391725 49.6795091 149 50zM141.235443 45.6307102L141.293671 45.5301344C141.158228 45.3742802 141.057595 45.2038388 141 45.0403071L141.417089 44.3255278 142.775949 42C142.925949 42.4 143 44.1819578 143 44.1819578L142.489241 45.1255278 141.979114 46C141.837342 45.9570058 141.685443 45.8771593 141.538608 45.7619962L141.488608 45.8487524C141.458861 45.9001919 141.377215 45.8932821 141.307595 45.8333973 141.236709 45.7735125 141.205063 45.6821497 141.235443 45.6307102"/>
    <path d="M138.017347,48.3859716 C138.102371,48.2795076 140.770717,45 140.770717,45 C140.843028,45.1482145 140.969373,45.3019958 141.139423,45.4439478 L141.066317,45.5351032 C141.028175,45.5817247 141.067907,45.66453 141.156904,45.7188057 C141.244313,45.7730815 141.346025,45.7786482 141.384167,45.7327226 L141.446942,45.6540923 C141.631295,45.7584688 141.822004,45.8308364 142,45.8698036 L139.601031,48.7999981 C139.485811,48.9433417 139.027313,49.0685935 138.584708,48.9572586 C138.165941,48.8514905 137.932322,48.4931314 138.017347,48.3859716"/>
    <path d="M138.207487 49L142 43.0876396C141.836881 42.9611948 141.629746 42.9725607 141.53783 43.1153438L138.018476 48.5901199C137.92656 48.7329031 138.207487 49 138.207487 49M134.254428 38.7360939L134.346216 38.6365884C134.177939 38.5055624 134.059581 38.3584672 134 38.2126082L134.652979 37.5043263 135.692432 36.3763906C135.692432 36.3763906 137.277778 36.013597 138 36L136.030596 38.1328801 135.231884 39C135.041868 38.9752781 134.8438 38.9171817 134.655395 38.8263288L134.57649 38.9116193C134.529791 38.9622991 134.419485 38.9653894 134.330113 38.9165637 134.239936 38.868356 134.206924 38.7873918 134.254428 38.7360939M132.045324 41.7827857L133.986836 39C134.035208 39.1585174 134.133277 39.3190498 134.271767 39.460775L134.196227 39.5689161C134.157132 39.6246659 134.1843 39.7126564 134.257852 39.7650478 134.331404 39.8181108 134.422185 39.8147524 134.46128 39.7596743L134.525555 39.6669819C134.681274 39.7663911 134.844281 39.8288577 135 39.8557251L132.76958 42.9582322C132.650969 43.1281682 132.380615 42.7392633 132.246764 42.5142493 132.059239 42.1992296 131.92605 41.9527217 132.045324 41.7827857"/>
    <path d="M132.167003 43L136 37.0237443C136 37.0237443 135.583476 36.9291495 135.460887 37.1175763L132.068793 42.4125968C131.9469 42.6010235 131.991478 42.8642107 132.167003 43M138.744204 44.0717042L139 43.7277991C138.836537 43.6819936 138.681281 43.6034698 138.543123 43.4871383 138.385131 43.3548112 138.266125 43.1868575 138.185419 43L137.909788 43.3700797C137.865331 43.4289725 137.78531 43.4391515 137.72991 43.3926189 137.72307 43.3875294 137.718283 43.3788046 137.713495 43.3722609L135.106288 46.8629339C134.92983 47.0992324 134.967447 47.5209342 135.261544 47.7681387 135.554958 48.0153432 135.920869 48.094594 136.096644 47.8582956L138.775665 44.2687408C138.772246 44.2665596 138.768142 44.2658325 138.764038 44.2629242 138.709322 44.2163916 138.699747 44.1305971 138.744204 44.0717042"/>
    <path d="M141.379239,39 L140.037684,40.6478722 L138.443988,42.6219627 L138.409044,42.6649215 L138,43.1717009 C138.005481,43.1784132 138.009592,43.1857968 138.016444,43.1911666 C138.071942,43.2341254 138.152792,43.2240569 138.196643,43.1696872 L138.472765,42.8280306 C138.553614,43.000537 138.672833,43.1555914 138.831107,43.2784266 C138.96951,43.3851524 139.125043,43.4576453 139.288798,43.4999329 L139.032545,43.8174252 C138.98801,43.8717949 138.997602,43.9510001 139.052415,43.9939589 C139.056526,43.9966438 139.060637,43.9973151 139.064748,44 L139.44296,43.5308095 L139.512162,43.4455632 L141.136005,41.434555 L142,40.3579004 C142,40.3579004 141.579993,39.1825748 141.379239,39"/>
    <path d="M141 40.1328015L135.122732 48C134.955363 47.8594751 134.959513 47.558664 135.133106 47.3259196L140.538699 40.0947427C140.712292 39.8612664 141 40.1328015 141 40.1328015M136.71863 42.0268646L137 41.6500336C136.830091 41.6210983 136.669697 41.5585175 136.529012 41.4555618 136.367938 41.3378021 136.249001 41.1803406 136.170843 41L135.868405 41.4050934C135.820151 41.469693 135.735876 41.4885345 135.679466 41.4474869 135.67199 41.4421036 135.667912 41.4347015 135.662475 41.4279724L133.102963 44.8591537C132.909946 45.1182251 132.99626 45.5051498 133.2953 45.7245193 133.595699 45.9432159 133.840369 46.1343231 134.033385 45.8752517L136.745136 42.2233551C136.741738 42.2213364 136.736981 42.2213364 136.733582 42.2186447 136.677173 42.1769241 136.671056 42.0914642 136.71863 42.0268646"/>
    <path d="M139.894609,37 L138.487129,38.844223 L136.542096,41.4119601 L136.499697,41.4680694 L136,42.1273533 C136.006057,42.1347361 136.0106,42.1428571 136.018928,42.1487634 C136.081769,42.1937984 136.175651,42.1731266 136.229406,42.1022518 L136.566323,41.6578073 C136.653392,41.8556663 136.785887,42.0284238 136.965324,42.1576227 C137.122047,42.2705795 137.300727,42.3392396 137.490006,42.3709856 L137.17656,42.7844223 C137.123561,42.8552972 137.130376,42.9490587 137.193216,42.994832 C137.197002,42.9977852 137.202302,42.9977852 137.206087,43 L137.668686,42.3894426 L137.751969,42.2787006 L139.734858,39.662237 L141,37.9944629 C140.812235,37.5655223 140.211841,37.0900701 139.894609,37"/>
    <path d="M140 37.1747907L133.128175 46C132.944246 45.8710728 132.959758 45.5543602 133.165108 45.2909002L139.541287 37.1005174C139.747376 36.8370574 140 37.1747907 140 37.1747907M207.56502 33.5979239L207.539364 34C207.343847 33.9262629 207.128867 33.8803511 206.901501 33.8720034 206.640517 33.8615689 206.391034 33.9005244 206.162783 33.9763485L206.190209 33.5443601C206.194632 33.4754924 206.123857 33.4170592 206.032734 33.413581 206.021233 33.413581 206.011501 33.4156679 206 33.4170592L206.245944 29.466557C206.262754 29.1903905 206.668827 28.9823961 207.154523 29.0011782 207.63845 29.0192647 208.017098 29.2585626 207.999404 29.534729L207.75346 33.4824487C207.747267 33.4824487 207.742844 33.4796662 207.737535 33.4796662 207.645527 33.476188 207.568559 33.5290562 207.56502 33.5979239M206 38.0825058L206.062281 37.1156144 206.218421 34.6821127 206.221053 34.6285472 206.261404 34.0040683C206.272807 34.0027122 206.282456 34 206.29386 34 206.384211 34.0040683 206.454386 34.061024 206.45 34.1281504L206.42193 34.549216C206.649123 34.4753092 206.896491 34.4373387 207.155263 34.4468313 207.380702 34.4556459 207.592982 34.5003968 207.787719 34.5722695L207.813158 34.1803598C207.816667 34.1132334 207.892982 34.061702 207.984211 34.0650923 207.989474 34.0650923 207.99386 34.0678044 208 34.0678044L207.963158 34.6468544 207.95614 34.7512733 207.797368 37.23156 207.707895 38.9592173C207.691228 39.2277229 206 38.0825058 206 38.0825058"/>
    <path d="M206.474561 38L207 29.0004016C206.728947 28.9892561 206.495614 29.2114226 206.478947 29.5004619L206 37.6953571 206.474561 38zM224.829816 25.0959211L225 25.4000829C224.819805 25.434473 224.63884 25.4971395 224.464805 25.5919035 224.266899 25.7011878 224.099024 25.8425695 223.965033 26L223.782528 25.6729114C223.754036 25.6209441 223.673949 25.6094807 223.604643 25.647692 223.594632 25.6530416 223.589242 25.6591554 223.581541 25.6652692L222.032941 22.8957154C221.915891 22.6863176 222.120729 22.3531152 222.48959 22.1498312 222.85845 21.9465472 223.252724 21.9503683 223.369773 22.1597661L224.916833 24.9277914C224.911443 24.9300841 224.907592 24.9300841 224.902972 24.9323768 224.832896 24.9705881 224.800553 25.0439537 224.829816 25.0959211"/>
    <path d="M224.788189,27.3783011 L224.380315,26.7761144 L223.3,25.1135408 L223.277165,25.0765349 L223,24.6492851 C223.007087,24.6445753 223.013386,24.6385198 223.023622,24.6338099 C223.093701,24.600841 223.176378,24.6102607 223.204724,24.6566863 L223.392126,24.9439865 C223.528346,24.8053827 223.7,24.6815812 223.90315,24.5853659 C224.081102,24.5019344 224.265354,24.446762 224.450394,24.4164844 L224.276378,24.1486964 C224.246457,24.1029437 224.279528,24.0383516 224.351181,24.0047098 C224.355906,24.0026913 224.359843,24.0020185 224.364567,24 L224.622047,24.3956266 L224.668504,24.466947 L225.768504,26.1618167 L227,28 C226.512598,27.870143 224.907087,27.561312 224.788189,27.3783011"/>
    <path d="M226 28L222.227908 22C222.015429 22.1037943 221.937808 22.3362934 222.053848 22.5217391L225.357858 27.7771883 226 28zM236.881944 22.7045443L236.878968 22.9893811C236.767361 22.940659 236.645337 22.9125501 236.518353 22.9113008 236.372024 22.9088023 236.232639 22.9419083 236.107143 23L236.109623 22.6939254C236.110615 22.645828 236.068948 22.6058509 236.018353 22.6052262 236.011409 22.6052262 236.005952 22.6071002 236 22.6083494L236.021825 20.0192082C236.023313 19.8243198 237 21.1766699 237 21.1766699L236.984127 22.619593C236.980655 22.619593 236.978175 22.6177191 236.974702 22.6177191 236.923611 22.6170944 236.881944 22.6558222 236.881944 22.7045443M236.000007 27.6320506L236.019871 25.5856628 236.034406 23.5664173 236.034406 23.5221325 236.038767 23.0035714C236.045065 23.0028571 236.050395 23 236.056693 23 236.106596 23.0007143 236.147293 23.0464276 236.146324 23.1021408L236.143902 23.4514196C236.266478 23.3849923 236.402136 23.3471359 236.545061 23.349993 236.669576 23.3521358 236.788277 23.3842781 236.897772 23.439277L236.900195 23.1135692C236.900195 23.0585703 236.940892 23.0142854 236.991279 23.0149997 236.994671 23.0149997 236.997093 23.0164282 237 23.0164282L236.997093 23.4964187 236.996124 23.5835598 236.981105 25.6406617 236.961241 27.6470503C236.959787 27.869903 236.746126 28.004186 236.480624 27.9999004 236.215122 27.9956148 235.998554 27.8549033 236.000007 27.6320506"/>
    <path d="M236.103003 20.0634038L236.000003 26.6158214C235.999003 26.8261885 236.247003 26.9979308 236.555003 27L236.660003 20.2358359C236.660003 20.2358359 236.106003 19.852347 236.103003 20.0634038M155.662169 41.9981415L156 42.3647379C155.80384 42.3930864 155.620913 42.4542931 155.462116 42.5554454 155.279189 42.6701276 155.146859 42.824111 155.062012 43L154.699271 42.6056994C154.64089 42.5432041 154.54281 42.5245199 154.47898 42.5651096 154.471196 42.5702639 154.466526 42.577351 154.460298 42.5844381L151.130246 38.9854789C150.897501 38.7342089 150.985461 38.3566596 151.324071 38.142758 151.663459 37.9288564 152.125837 37.9584933 152.357804 38.2104076L155.686299 41.8061455C155.681629 41.8087226 155.676958 41.8093669 155.672288 41.8112997 155.609237 41.8518895 155.603788 41.9350019 155.662169 41.9981415M158.092149 49L156.611397 47.1467713 154.569112 44.5874472 154.524401 44.5309596 154 43.8741098C154.006062 43.8668678 154.010609 43.8589016 154.018945 43.853108 154.080327 43.8074834 154.176569 43.827761 154.232646 43.8987326L154.586541 44.3419433C154.668384 44.1435124 154.797211 43.9711527 154.975296 43.8415208 155.129888 43.7285456 155.307972 43.6590223 155.498939 43.6278817L155.170052 43.2158117C155.113216 43.1448401 155.118521 43.0514182 155.179903 43.0057936 155.18445 43.0028968 155.188997 43.0028968 155.193543 43L155.678539 43.6083283 155.767202 43.7184068 157.848136 46.3269765 159 47.7703078C159 47.7703078 158.443771 48.6806276 158.092149 49"/>
    <path d="M159 47.6400558L152.119154 39C151.939976 39.1311425 151.965469 39.4513254 152.178151 39.7184933L158.758183 48 159 47.6400558zM198.133134 32.0814184L198.086494 32.213162C197.850076 32.1846769 197.626525 32.2024801 197.440768 32.2601624L197.110265 33.1951857 196.011002 36.3883651C195.93863 36.594882 196.231337 36.8156415 196.652708 36.9324304 197.07247 37.0499315 197.461675 37.0171736 197.534048 36.8106567L198.59632 33.7214479 199 32.5791955C198.859275 32.4638308 198.678343 32.3662694 198.469266 32.2979051L198.509473 32.185389C198.533597 32.1177369 198.468462 32.0394029 198.364727 32.0109178 198.260189 31.9817206 198.157259 32.0130542 198.133134 32.0814184"/>
    <path d="M198.056091,29 L197,32.6484467 C197.165059,32.5847424 197.364416,32.5642941 197.574491,32.595753 L197.615934,32.4502556 C197.63737,32.3755407 197.728832,32.3401494 197.821008,32.3723948 C197.913898,32.4038537 197.971776,32.4903657 197.950339,32.5658671 L197.914612,32.6893433 C198.100393,32.7648447 198.261165,32.8725914 198.385495,33 L199,30.841919 C199,30.841919 198.744194,29.818718 198.056091,29"/>
    <path d="M198 30.396113L196.252689 37C196.065319 36.9300977 195.958613 36.7023516 196.015142 36.4896381L197.731965 30 198 30.396113zM152.356508 45.8794501L152.248122 45.6838284C152.023014 45.7257473 151.78881 45.6991987 151.574313 45.6132648L150.807276 44.2243506 149.061737 41.0671556C148.892716 40.7604486 149.085991 40.431385 149.455867 40.2574213 149.825742 40.0834577 150.069799 39.8396292 150.239578 40.1463361L152.061669 43.441165 153 45.1381835C152.911321 45.3093525 152.774134 45.4553702 152.596017 45.5573729L152.687728 45.7236514C152.743816 45.8242569 152.715014 45.9409312 152.623303 45.9842475 152.531592 46.0268651 152.412596 45.9800556 152.356508 45.8794501"/>
    <path d="M153.617841,50.9986962 L151,45.5064076 C151.195765,45.5972631 151.410274,45.6263071 151.617147,45.5816241 L151.715724,45.7894001 C151.767095,45.8966394 151.876085,45.9472802 151.960083,45.9011077 C152.044082,45.8549352 152.070462,45.7313122 152.019785,45.6240729 L151.935092,45.4460855 C152.098924,45.3373568 152.223881,45.181711 152.305102,45 L155,50.665063 C154.687608,50.81773 154.11975,51.0180589 153.617841,50.9986962"/>
    <path d="M154 49.9604116L149.157557 40C148.978231 40.0956615 148.94693 40.4099778 149.089739 40.703112L153.522016 49.8196526C153.664172 50.1127867 154 49.9604116 154 49.9604116M126.404536 110.13573C136.273564 92.8323853 133.943909 72.5765027 125.546014 54 140.201647 64.6332414 144.555736 96.9993421 138.084634 115.409535 132.302808 131.854435 115.97425 128.421367 126.404536 110.13573M26.4515431 139C14.4947864 131.00346 6.06819916 118.830093 2 105 21.4030884 107.905223 29.2458266 120.33207 26.4515431 139M41 35C25.7684731 41.1539737 16.9078593 56.1439555 13.9583362 71.8853272 11.4629674 85.2114673 2.87158706 82.3620682 0 84 2.32036704 65.1718377 17.3336732 36.820002 41 35"/>
    <path d="M87.8794647 137.9235C87.8049738 147.171139 82.4586547 159.355973 88.322863 164.217609 92.8355934 167.959776 97.3355539 157.474642 101.822745 149.783942 106.953395 140.994267 109.579022 142.867117 120.306423 141.890408 145.211927 139.621786 140.101141 132.950906 127.653355 130.875929 123.008669 130.102053 116.221483 129.094248 113.084352 122.298275 110.106843 115.847897 113.281575 109.753006 118.251893 102.732292 124.985871 93.2217469 126.910574 87.7629187 112.173434 96.1101765 96.9964429 104.705499 96.1777523 106.913342 80.249467 98.5964734 58.8606432 87.4286326 65.3647639 98.7858786 75.1195262 108.336708 82.8899925 115.946133 87.9688538 126.870857 87.8794647 137.9235M27.8333142 63.6050103C34.7122315 60.5141064 45.5019418 61.9524478 47.0834616 53 53.0738145 57.4466885 49.9752843 72.3261564 36.4990713 78.9371181 25.7336386 84.2193399 17.2947048 68.3399364 27.8333142 63.6050103"/>
    <path d="M67.7473172 130.367527C58.3610753 109.723964 54.288251 95.4646948 63.5130121 73.6941177 74.5653136 47.6082633 68.0590452 51.7088712 55.2725812 68.3803456 43.9633148 83.1254452 29.9615329 84.3195434 8.90374617 88.9229294-3.70719525 91.6797356-3.57309605 96.8395671 13.5059464 97.5647823 33.0331769 98.3938013 36.9494352 111.855828 36.3814443 128.761744 36.1904758 134.458249 35.3086507 140.197123 33.4460058 145.388025 27.139833 162.957721 35.0025395 161.426083 41.2981809 152.547671 44.4323109 148.127177 47.2301397 143.148826 48.6315115 137.43608 51.4819971 125.823457 54.6336793 128.862017 59.7210238 136.580227 77.3104857 163.268427 74.5730366 145.381669 67.7473172 130.367527M88.4782287 97.4565373C84.6993761 93.3417426 85.3748162 84.4271891 89.6008318 80.6173 94.9862926 75.7617134 99.7490482 76.3078238 102.700758 79.2409302 112.96528 89.4438174 96.7489384 106.46199 88.4782287 97.4565373M114.199238 45.5922294C96.8359919 55.3971709 70.6160097 51.0543019 55.6987363 39.1055435 48.5433019 33.3741992 49.8789361 33.2312781 57.5439189 31.3581138 64.1624325 29.7397219 68.0696717 28.4817398 75.859585 34.2621053 80.4890353 37.6970454 85.2118325 40.2275089 89.5479065 41.2693831 99.8609965 43.7459922 107.646699 43.5347175 114.733351 40.9724938 128.309375 36.0613926 128.712943 37.3967039 114.199238 45.5922294"/>
    <path d="M91.5477702 19.3261384C95.3660984 27.3633307 104.008978 34.3940392 113.227444 34.7574917 119.958009 35.0230915 124.187369 33.2365829 113.492129 37.1611706 107.131283 39.4949549 100.042203 39.6620032 90.5422468 37.3477895 86.9752994 36.4782993 83.0589397 34.410115 79.1439804 31.5681962 69.6636309 24.691256 78.4871691 22.2819855 85.3444748 16.5611038 91.9167889 11.0764662 88.0081316 11.8732658 91.5477702 19.3261384M60.951521 2.10072094C68.4426793 5.30347365 74.8981839 6.57396342 82.0385224 7.0794348 88.6774897 7.54905714 89.9904381 6.80769912 84.868889 13.1608649 82.4964788 16.1033537 79.5897862 18.5876917 76.3427773 20.6655017 68.5232068 25.6707439 61.6111462 15.609354 57.625385 6.83566136 53.859499-1.4533523 53.4778686-1.09414498 60.951521 2.10072094M52.2753212 21.0119901C52.7735446 18.0169681 53.15547 14.6755173 53.2765851 11.2443539 53.4720207 5.74979971 52.6193981 5.6780296 55.5901583 10.5183716 57.1969976 13.1345302 59.1465374 15.9846318 60.8779325 18.321301 63.7853826 22.2472642 65.9744 24.8399595 61.2337081 26.1670164 59.6509542 26.6100589 58.053061 26.9992737 56.4524151 27.3374213 48.7072435 28.9736419 51.1398673 27.8363616 52.2753212 21.0119901"/>
  </g>
</svg>
